<svg width="1201" height="400" viewBox="0 0 1201 400" fill="none" xmlns="http://www.w3.org/2000/svg">
<g clip-path="url(#clip0_26698_17573)">
<rect width="1201" height="602" transform="matrix(1 0 0 -1 0 562)" fill="url(#paint0_radial_26698_17573)"/>
<path opacity="0.12" d="M846.593 174.1C876.249 118.374 942.769 130.776 964 140.657C955.2 77.5579 1079.08 62.8208 1098.16 106.77C1080.38 123.68 1158.03 132.252 1186.69 85.5264C1191.96 76.9433 1181.67 61.2294 1167.97 59.4119C1187.57 41.426 1209.44 32.1052 1233 29.6132V411L500.999 411C500.999 411 428.5 419.5 414.979 389.553C401.458 359.606 447.264 326.951 447.264 326.951C447.264 326.951 442.86 337.435 450.983 346.554C456.774 353.055 467.22 354.384 475.803 352.555C490.576 349.406 497.305 332.262 507.882 322.71C523.8 308.335 543.842 297.725 562.279 296.073C556.986 310.96 570.215 316.792 578.438 313.502C582.99 311.68 589.618 303.172 589.618 303.172C618.883 268.065 672.089 268.449 672.089 268.449C669.803 238.992 706.828 206.523 761.883 211.441C760.382 252.026 803.554 242.612 841.193 216.912C875.437 193.53 894.966 158.813 846.593 174.1Z" fill="url(#paint1_linear_26698_17573)"/>
<path opacity="0.07" d="M432.363 347.898C447.176 292.784 501.158 294.235 519.283 300.093C502.857 243.948 654.326 156.133 675.914 193.324C654.5 200 670.5 225.5 696 206.422C733.303 183.516 809.504 134.839 912.5 151.5C932.476 217.505 907.762 356.602 907.762 356.602L833.999 400.889L409.5 400.889C440.177 373.139 477.442 321.213 432.363 347.898Z" fill="url(#paint2_linear_26698_17573)"/>
<path opacity="0.5" d="M985.535 212.247C979.189 205.025 956.105 190.417 935.258 210.364C979.285 210.63 868.607 245.481 901.365 217.903C856 217.903 806.118 238.81 782.619 267.5C759.849 295.3 755.362 336.999 747 307.5C747 362 675.501 381.034 681.93 345.677C667.335 309.874 565.571 326.021 530 401L1201 400V222.5C1186.15 215.086 1171.1 216.792 1155.95 221.545C1142.66 225.712 1130.52 229.522 1132.07 216.274C1082.73 232.151 1070.1 212.46 1081.53 206.741C1081.87 185.101 993.074 183.765 985.535 212.247Z" fill="#FFB152"/>
<path d="M1216.09 249.955C1205.06 240.317 1182.51 220.611 1162.68 247.345C1199.4 266.273 1131.38 315.541 1112.26 273.068C1099.03 287.7 1072.19 294.402 1052.37 287.927C1071.21 239.305 776.397 241.147 802.093 357.432C783.866 358.112 731.927 363.383 744.466 401.728H1216.09V249.955Z" fill="#FFB152"/>
<path d="M381.935 78.4917C386.155 64.8411 354.137 52.222 343.083 51.5598C323.941 50.4132 318.42 56.8764 321.307 64.6128C303.903 60.0002 300.615 46.8357 297.741 35.3259C294.49 22.311 291.768 11.412 269.762 17.3864C272.045 11.2726 272.741 5.31695 271.512 6.13732e-05L590.589 6.10352e-05C596.665 8.85745 590.925 21.5086 581.911 27.9081C575.91 32.1678 571.119 32.2037 565.887 32.2429C561.249 32.2776 556.265 32.3149 549.786 35.3024C538.758 40.3875 538.3 55.6889 539.7 60.4244C531.242 56.1271 510.395 55.4997 498.607 74.2898C486.82 93.0799 473.117 94.5395 467.739 92.9205C469.531 89.8503 470.68 82.8949 460.944 79.6353C431.53 69.7874 410.949 87.9817 381.935 78.4917Z" fill="url(#paint3_radial_26698_17573)"/>
<path d="M559.024 0.000121117C556.166 20.1772 525.213 10.3852 519.694 10.4618C505.503 10.6589 497.609 25.7788 508.546 26.4269C506.798 31.428 504.325 34.3377 500.396 37.6291C480.29 54.4727 459.828 37.1232 440.81 34.6349C433.211 33.6408 426.244 35.6521 425.735 38.2448C425.925 40.9066 427.256 42.3668 430.553 42.7115C430.657 46.5754 423.004 54.4719 405.472 57.4276C385.765 58.1413 381.126 50.1484 380.651 47.0714C384.297 47.2876 390.747 40.9275 382.303 34.3643C373.859 27.8011 356.699 31.1919 351.9 34.6533C352.873 32.9936 354.178 27.725 351.619 19.9276C348.419 10.1809 344.394 4.64117 331.84 4.97985C321.796 5.25081 316.891 3.3352 315 0.000123024L559.024 0.000121117Z" fill="url(#paint4_radial_26698_17573)"/>
</g>
<defs>
<radialGradient id="paint0_radial_26698_17573" cx="0" cy="0" r="1" gradientUnits="userSpaceOnUse" gradientTransform="translate(493.042 713.239) rotate(-45.9613) scale(667.21 683.352)">
<stop stop-color="#FFFBE4"/>
<stop offset="0.153836" stop-color="#FDF0AB"/>
<stop offset="0.503364" stop-color="#FFA94B"/>
<stop offset="1" stop-color="#FF7722"/>
</radialGradient>
<linearGradient id="paint1_linear_26698_17573" x1="778.155" y1="224.874" x2="767.733" y2="402.332" gradientUnits="userSpaceOnUse">
<stop stop-color="#F4FDAB"/>
<stop offset="1" stop-color="#F4FDAB" stop-opacity="0"/>
</linearGradient>
<linearGradient id="paint2_linear_26698_17573" x1="633.84" y1="236.045" x2="714.802" y2="357.358" gradientUnits="userSpaceOnUse">
<stop stop-color="#F4FDAB"/>
<stop offset="1" stop-color="#F4FDAB" stop-opacity="0"/>
</linearGradient>
<radialGradient id="paint3_radial_26698_17573" cx="0" cy="0" r="1" gradientUnits="userSpaceOnUse" gradientTransform="translate(426.439 18.8712) rotate(24.9892) scale(148.397 86.4489)">
<stop stop-color="#F4FDAB" stop-opacity="0"/>
<stop offset="1" stop-color="#F4FDAB" stop-opacity="0.12"/>
</radialGradient>
<radialGradient id="paint4_radial_26698_17573" cx="0" cy="0" r="1" gradientUnits="userSpaceOnUse" gradientTransform="translate(439.258 5.62033) rotate(159.751) scale(114.311 53.1561)">
<stop stop-color="#F4FDAB" stop-opacity="0"/>
<stop offset="1" stop-color="#F4FDAB" stop-opacity="0.12"/>
</radialGradient>
<clipPath id="clip0_26698_17573">
<rect width="1201" height="400" rx="16" fill="white"/>
</clipPath>
</defs>
</svg>
