<?xml version="1.0" encoding="UTF-8"?>
<!DOCTYPE svg PUBLIC "-//W3C//DTD SVG 1.1//EN" "http://www.w3.org/Graphics/SVG/1.1/DTD/svg11.dtd">
<svg xmlns="http://www.w3.org/2000/svg" version="1.1" width="626px" height="499px" style="shape-rendering:geometricPrecision; text-rendering:geometricPrecision; image-rendering:optimizeQuality; fill-rule:evenodd; clip-rule:evenodd" xmlns:xlink="http://www.w3.org/1999/xlink">
<g><path style="opacity:0.024" fill="#b2c5c6" d="M 319.5,105.5 C 320.906,105.973 321.573,106.973 321.5,108.5C 320.094,108.027 319.427,107.027 319.5,105.5 Z"/></g>
<g><path style="opacity:0.325" fill="#dedfdb" d="M 316.5,98.5 C 314.804,96.871 313.804,97.2043 313.5,99.5C 297.29,130.251 280.29,160.585 262.5,190.5C 256.573,202.035 249.906,213.035 242.5,223.5C 259.569,193.146 276.735,162.813 294,132.5C 299.883,119.38 306.716,107.046 314.5,95.5C 315.919,96.0047 316.585,97.0047 316.5,98.5 Z"/></g>
<g><path style="opacity:1" fill="#373d41" d="M 313.5,99.5 C 315.857,102.843 317.857,106.509 319.5,110.5C 318.675,111.386 317.675,111.719 316.5,111.5C 316.491,113.308 316.991,114.975 318,116.5C 318.333,116.167 318.667,115.833 319,115.5C 319.309,116.766 319.809,117.933 320.5,119C 319.139,121.584 319.805,123.584 322.5,125C 321.874,125.75 321.374,126.584 321,127.5C 320.29,126.027 319.124,125.36 317.5,125.5C 317.627,128.245 316.46,130.245 314,131.5C 313.56,133.866 313.06,136.199 312.5,138.5C 311.646,140.035 311.646,141.368 312.5,142.5C 306.573,154.035 299.906,165.035 292.5,175.5C 290.205,174.072 288.205,174.572 286.5,177C 283.782,177.653 281.116,178.487 278.5,179.5C 277.006,179.291 275.839,178.624 275,177.5C 272.789,180.048 270.289,182.214 267.5,184C 268.029,186.429 269.363,188.262 271.5,189.5C 268.971,190.599 266.471,191.599 264,192.5C 263.722,191.584 263.222,190.918 262.5,190.5C 280.29,160.585 297.29,130.251 313.5,99.5 Z"/></g>
<g><path style="opacity:1" fill="#2f3236" d="M 316.5,98.5 C 317.736,100.649 318.736,102.982 319.5,105.5C 319.427,107.027 320.094,108.027 321.5,108.5C 326.498,117.829 331.498,127.162 336.5,136.5C 335.637,135.537 334.97,135.537 334.5,136.5C 337.5,141.833 340.5,147.167 343.5,152.5C 337.841,155.976 338.174,158.476 344.5,160C 343.978,160.561 343.645,161.228 343.5,162C 345.154,164.042 346.988,165.876 349,167.5C 349.713,170.475 348.879,172.975 346.5,175C 347.38,176.356 347.714,177.856 347.5,179.5C 345.833,179.5 344.167,179.5 342.5,179.5C 342.649,178.448 342.483,177.448 342,176.5C 341.329,177.252 340.496,177.586 339.5,177.5C 333.174,167.521 327.34,157.188 322,146.5C 318.596,144.652 316.43,141.819 315.5,138C 314.423,137.53 313.423,137.697 312.5,138.5C 313.06,136.199 313.56,133.866 314,131.5C 316.46,130.245 317.627,128.245 317.5,125.5C 319.124,125.36 320.29,126.027 321,127.5C 321.374,126.584 321.874,125.75 322.5,125C 319.805,123.584 319.139,121.584 320.5,119C 319.809,117.933 319.309,116.766 319,115.5C 318.667,115.833 318.333,116.167 318,116.5C 316.991,114.975 316.491,113.308 316.5,111.5C 317.675,111.719 318.675,111.386 319.5,110.5C 317.857,106.509 315.857,102.843 313.5,99.5C 313.804,97.2043 314.804,96.871 316.5,98.5 Z"/></g>
<g><path style="opacity:1" fill="#272a2e" d="M 336.5,136.5 C 345.532,151.232 354.199,166.232 362.5,181.5C 356.646,179.547 356.146,180.88 361,185.5C 360.689,186.935 360.855,188.268 361.5,189.5C 360.965,191.271 360.131,191.604 359,190.5C 357.933,191.191 356.766,191.691 355.5,192C 356.337,193.011 356.67,194.178 356.5,195.5C 355.5,195.5 354.5,195.5 353.5,195.5C 353.741,192.001 352.908,191.668 351,194.5C 350.722,193.584 350.222,192.918 349.5,192.5C 344.703,188.663 341.37,183.663 339.5,177.5C 340.496,177.586 341.329,177.252 342,176.5C 342.483,177.448 342.649,178.448 342.5,179.5C 344.167,179.5 345.833,179.5 347.5,179.5C 347.714,177.856 347.38,176.356 346.5,175C 348.879,172.975 349.713,170.475 349,167.5C 346.988,165.876 345.154,164.042 343.5,162C 343.645,161.228 343.978,160.561 344.5,160C 338.174,158.476 337.841,155.976 343.5,152.5C 340.5,147.167 337.5,141.833 334.5,136.5C 334.97,135.537 335.637,135.537 336.5,136.5 Z"/></g>
<g><path style="opacity:1" fill="#dedfdb" d="M 314.5,140.5 C 324.816,159.127 335.149,177.794 345.5,196.5C 346.06,200.575 347.727,204.075 350.5,207C 348.402,207.014 346.569,206.847 345,206.5C 344.833,207.333 344.667,208.167 344.5,209C 345.422,210.099 346.422,211.599 347.5,213.5C 347.291,214.086 346.957,214.586 346.5,215C 349.959,215.916 350.959,217.916 349.5,221C 352.2,221.949 353.033,223.783 352,226.5C 351.08,226.93 350.247,227.264 349.5,227.5C 350.167,228.5 350.833,229.5 351.5,230.5C 351.03,231.463 350.363,231.463 349.5,230.5C 344.437,222.72 339.604,214.72 335,206.5C 334.598,205.128 334.098,203.795 333.5,202.5C 334.98,201.887 336.313,201.554 337.5,201.5C 336.41,199.997 335.243,199.664 334,200.5C 333.402,197.692 332.235,195.192 330.5,193C 331.624,192.751 332.624,192.251 333.5,191.5C 331.585,189.929 330.585,187.929 330.5,185.5C 328.856,185.286 327.356,185.62 326,186.5C 322.355,182.545 318.688,178.545 315,174.5C 314.601,174.728 314.435,175.062 314.5,175.5C 313.833,175.167 313.167,174.833 312.5,174.5C 315.005,163.413 315.672,152.08 314.5,140.5 Z"/></g>
<g><path style="opacity:1" fill="#2e353a" d="M 292.5,175.5 C 280.86,197.114 268.86,218.448 256.5,239.5C 256.66,237.801 256.494,236.134 256,234.5C 252.801,235.236 252.635,234.403 255.5,232C 250.746,230.111 245.746,229.278 240.5,229.5C 240.5,228.833 240.5,228.167 240.5,227.5C 241.674,226.486 242.34,225.153 242.5,223.5C 249.906,213.035 256.573,202.035 262.5,190.5C 263.222,190.918 263.722,191.584 264,192.5C 266.471,191.599 268.971,190.599 271.5,189.5C 269.363,188.262 268.029,186.429 267.5,184C 270.289,182.214 272.789,180.048 275,177.5C 275.839,178.624 277.006,179.291 278.5,179.5C 281.116,178.487 283.782,177.653 286.5,177C 288.205,174.572 290.205,174.072 292.5,175.5 Z"/></g>
<g><path style="opacity:1" fill="#212428" d="M 362.5,181.5 C 369.431,193.031 376.098,204.698 382.5,216.5C 378.887,214.743 376.22,215.743 374.5,219.5C 373.061,220.063 371.561,220.397 370,220.5C 367.588,219.452 365.422,218.785 363.5,218.5C 361.856,216.519 360.19,214.519 358.5,212.5C 355.462,205.813 352.462,199.146 349.5,192.5C 350.222,192.918 350.722,193.584 351,194.5C 352.908,191.668 353.741,192.001 353.5,195.5C 354.5,195.5 355.5,195.5 356.5,195.5C 356.67,194.178 356.337,193.011 355.5,192C 356.766,191.691 357.933,191.191 359,190.5C 360.131,191.604 360.965,191.271 361.5,189.5C 360.855,188.268 360.689,186.935 361,185.5C 356.146,180.88 356.646,179.547 362.5,181.5 Z"/></g>
<g><path style="opacity:1" fill="#293038" d="M 328.5,202.5 C 328.343,203.873 328.51,205.207 329,206.5C 333.257,212.38 336.09,218.547 337.5,225C 336.66,226.171 335.827,227.338 335,228.5C 334.333,227.167 333.667,227.167 333,228.5C 332.333,226.5 331.667,224.5 331,222.5C 330.124,220.365 328.624,219.031 326.5,218.5C 325.526,217.365 324.359,216.365 323,215.5C 321.415,211.737 319.581,208.07 317.5,204.5C 315.738,202.193 314.405,202.193 313.5,204.5C 309.492,210.838 305.492,217.172 301.5,223.5C 300.854,221.844 300.187,220.177 299.5,218.5C 300.241,210.933 303.408,204.6 309,199.5C 309.608,197.846 310.108,196.179 310.5,194.5C 311.878,187.884 315.045,186.551 320,190.5C 322.118,195.094 324.952,199.094 328.5,202.5 Z"/></g>
<g><path style="opacity:1" fill="#f0f4f4" d="M 314.5,140.5 C 315.672,152.08 315.005,163.413 312.5,174.5C 308.099,182.297 303.432,189.964 298.5,197.5C 295.18,196.457 292.18,197.29 289.5,200C 290.175,202.242 289.675,204.409 288,206.5C 287.085,205.672 286.419,204.672 286,203.5C 285.18,207.366 283.68,211.366 281.5,215.5C 278.833,218.833 275.833,221.833 272.5,224.5C 270.737,229.548 269.071,234.548 267.5,239.5C 265.692,239.491 264.025,239.991 262.5,241C 262.833,241.333 263.167,241.667 263.5,242C 262.034,242.635 260.7,243.469 259.5,244.5C 258.575,243.359 257.741,243.359 257,244.5C 253.905,248.189 251.739,252.356 250.5,257C 248.125,259.407 247.125,258.907 247.5,255.5C 250.5,250.167 253.5,244.833 256.5,239.5C 268.86,218.448 280.86,197.114 292.5,175.5C 299.906,165.035 306.573,154.035 312.5,142.5C 312.987,141.527 313.487,140.527 314,139.5C 314.399,139.728 314.565,140.062 314.5,140.5 Z"/></g>
<g><path style="opacity:1" fill="#080a0c" d="M 312.5,174.5 C 313.167,174.833 313.833,175.167 314.5,175.5C 318.912,184.657 323.578,193.657 328.5,202.5C 324.952,199.094 322.118,195.094 320,190.5C 315.045,186.551 311.878,187.884 310.5,194.5C 306.048,198.113 302.548,202.447 300,207.5C 296.198,216.096 292.698,224.763 289.5,233.5C 288.325,233.281 287.325,233.614 286.5,234.5C 285.634,237.531 284.134,240.197 282,242.5C 281.51,243.793 281.343,245.127 281.5,246.5C 273.621,259.574 265.455,272.574 257,285.5C 254.09,286.45 252.923,288.45 253.5,291.5C 250.4,295.263 247.567,299.263 245,303.5C 243.948,307.932 242.115,311.932 239.5,315.5C 236.412,318.263 234.078,321.597 232.5,325.5C 230.167,326.167 227.833,326.833 225.5,327.5C 224.808,326.975 224.308,326.308 224,325.5C 219.667,328.167 215.333,328.167 211,325.5C 210.667,326.167 210.333,326.833 210,327.5C 205.737,324.272 205.57,321.605 209.5,319.5C 209.5,320.167 209.5,320.833 209.5,321.5C 209.611,322.117 209.944,322.617 210.5,323C 217.082,323.81 223.582,323.643 230,322.5C 256.373,276.1 283.039,229.766 310,183.5C 311.43,180.647 312.263,177.647 312.5,174.5 Z"/></g>
<g><path style="opacity:1" fill="#e5e9e6" d="M 298.5,197.5 C 284.323,223.196 269.657,248.529 254.5,273.5C 253.325,273.281 252.325,273.614 251.5,274.5C 250.108,278.667 247.442,280.501 243.5,280C 243.957,280.414 244.291,280.914 244.5,281.5C 242.851,282.648 241.351,283.981 240,285.5C 238.929,280.319 236.929,279.653 234,283.5C 232.293,285.909 231.46,288.575 231.5,291.5C 230.5,291.5 229.5,291.5 228.5,291.5C 227.782,296.71 225.449,301.044 221.5,304.5C 220.614,303.675 220.281,302.675 220.5,301.5C 220.5,301.167 220.5,300.833 220.5,300.5C 227.974,288.23 235.474,275.897 243,263.5C 243.608,261.846 244.108,260.179 244.5,258.5C 245.728,257.694 246.728,256.694 247.5,255.5C 247.125,258.907 248.125,259.407 250.5,257C 251.739,252.356 253.905,248.189 257,244.5C 257.741,243.359 258.575,243.359 259.5,244.5C 260.7,243.469 262.034,242.635 263.5,242C 263.167,241.667 262.833,241.333 262.5,241C 264.025,239.991 265.692,239.491 267.5,239.5C 269.071,234.548 270.737,229.548 272.5,224.5C 275.833,221.833 278.833,218.833 281.5,215.5C 283.68,211.366 285.18,207.366 286,203.5C 286.419,204.672 287.085,205.672 288,206.5C 289.675,204.409 290.175,202.242 289.5,200C 292.18,197.29 295.18,196.457 298.5,197.5 Z"/></g>
<g><path style="opacity:1" fill="#ebecec" d="M 349.5,230.5 C 356.681,244.205 364.347,257.538 372.5,270.5C 376.76,279.366 381.76,287.7 387.5,295.5C 390.882,302.77 394.382,310.103 398,317.5C 398.495,319.473 398.662,321.473 398.5,323.5C 398.167,323.5 397.833,323.5 397.5,323.5C 390.354,309.207 382.687,295.207 374.5,281.5C 366.833,268.167 359.167,254.833 351.5,241.5C 344.071,228.3 336.404,215.3 328.5,202.5C 323.578,193.657 318.912,184.657 314.5,175.5C 314.435,175.062 314.601,174.728 315,174.5C 318.688,178.545 322.355,182.545 326,186.5C 327.356,185.62 328.856,185.286 330.5,185.5C 330.585,187.929 331.585,189.929 333.5,191.5C 332.624,192.251 331.624,192.751 330.5,193C 332.235,195.192 333.402,197.692 334,200.5C 335.243,199.664 336.41,199.997 337.5,201.5C 336.313,201.554 334.98,201.887 333.5,202.5C 334.098,203.795 334.598,205.128 335,206.5C 339.604,214.72 344.437,222.72 349.5,230.5 Z"/></g>
<g><path style="opacity:1" fill="#bcbcb9" d="M 314.5,206.5 C 318.773,213.126 323.107,219.793 327.5,226.5C 326.675,227.386 325.675,227.719 324.5,227.5C 322.97,226.933 321.47,226.267 320,225.5C 318.43,226.614 317.097,227.947 316,229.5C 315.829,237.344 315.329,245.011 314.5,252.5C 314.827,243.318 314.493,234.318 313.5,225.5C 313.701,222.272 313.367,219.105 312.5,216C 313.872,212.974 314.538,209.807 314.5,206.5 Z"/></g>
<g><path style="opacity:1" fill="#383b3a" d="M 312.5,174.5 C 312.263,177.647 311.43,180.647 310,183.5C 283.039,229.766 256.373,276.1 230,322.5C 223.582,323.643 217.082,323.81 210.5,323C 209.944,322.617 209.611,322.117 209.5,321.5C 216.034,320.891 222.534,320.225 229,319.5C 237.256,303.983 245.756,288.65 254.5,273.5C 269.657,248.529 284.323,223.196 298.5,197.5C 303.432,189.964 308.099,182.297 312.5,174.5 Z"/></g>
<g><path style="opacity:1" fill="#1d1e23" d="M 382.5,216.5 C 387.925,224.344 392.591,232.677 396.5,241.5C 395.883,241.389 395.383,241.056 395,240.5C 392.519,245.389 388.686,246.722 383.5,244.5C 382.167,243.5 382.167,242.5 383.5,241.5C 381.735,239.947 379.902,239.614 378,240.5C 377.578,238.574 376.411,237.574 374.5,237.5C 372.331,232.171 369.165,227.504 365,223.5C 364.392,221.846 363.892,220.179 363.5,218.5C 365.422,218.785 367.588,219.452 370,220.5C 371.561,220.397 373.061,220.063 374.5,219.5C 376.22,215.743 378.887,214.743 382.5,216.5 Z"/></g>
<g><path style="opacity:0.071" fill="#dbdcdb" d="M 242.5,223.5 C 242.34,225.153 241.674,226.486 240.5,227.5C 240.229,225.62 240.896,224.287 242.5,223.5 Z"/></g>
<g><path style="opacity:1" fill="#f8fafc" d="M 313.5,204.5 C 314.338,204.842 314.672,205.508 314.5,206.5C 314.538,209.807 313.872,212.974 312.5,216C 313.367,219.105 313.701,222.272 313.5,225.5C 313.666,235.506 313.5,245.506 313,255.5C 312.259,254.359 311.425,254.359 310.5,255.5C 309.745,261.164 309.078,266.831 308.5,272.5C 308.365,277.381 308.699,282.381 309.5,287.5C 310.5,287.833 311.167,288.5 311.5,289.5C 310.721,294.113 310.221,298.78 310,303.5C 309.727,298.771 309.061,294.104 308,289.5C 307.667,295.167 307.333,300.833 307,306.5C 306.831,300.141 306.331,293.807 305.5,287.5C 304.178,309.869 304.178,332.202 305.5,354.5C 305.145,355.522 304.478,356.189 303.5,356.5C 303.832,313.663 303.499,270.997 302.5,228.5C 301.833,228.5 301.5,228.167 301.5,227.5C 301.5,226.167 301.5,224.833 301.5,223.5C 305.492,217.172 309.492,210.838 313.5,204.5 Z"/></g>
<g><path style="opacity:1" fill="#0e0f11" d="M 339.5,177.5 C 341.37,183.663 344.703,188.663 349.5,192.5C 352.462,199.146 355.462,205.813 358.5,212.5C 360.19,214.519 361.856,216.519 363.5,218.5C 363.892,220.179 364.392,221.846 365,223.5C 369.165,227.504 372.331,232.171 374.5,237.5C 377.077,241.652 379.411,245.985 381.5,250.5C 385.63,255.248 388.63,260.581 390.5,266.5C 389.5,266.833 388.833,267.5 388.5,268.5C 388.167,268.5 387.833,268.5 387.5,268.5C 381.001,256.164 374.001,244.164 366.5,232.5C 360.29,219.976 353.29,207.976 345.5,196.5C 335.149,177.794 324.816,159.127 314.5,140.5C 314.565,140.062 314.399,139.728 314,139.5C 313.487,140.527 312.987,141.527 312.5,142.5C 311.646,141.368 311.646,140.035 312.5,138.5C 313.423,137.697 314.423,137.53 315.5,138C 316.43,141.819 318.596,144.652 322,146.5C 327.34,157.188 333.174,167.521 339.5,177.5 Z"/></g>
<g><path style="opacity:1" fill="#1f2529" d="M 310.5,194.5 C 310.108,196.179 309.608,197.846 309,199.5C 303.408,204.6 300.241,210.933 299.5,218.5C 300.187,220.177 300.854,221.844 301.5,223.5C 301.5,224.833 301.5,226.167 301.5,227.5C 300.732,226.737 300.232,225.737 300,224.5C 299.137,226.749 299.637,228.582 301.5,230C 300.987,232.718 300.987,235.551 301.5,238.5C 300.761,238.369 300.094,238.536 299.5,239C 300.634,243.475 300.468,247.975 299,252.5C 298.667,250.833 298.333,249.167 298,247.5C 297.667,248.5 297.333,249.5 297,250.5C 295.416,249.139 293.582,248.472 291.5,248.5C 291.67,249.822 291.337,250.989 290.5,252C 286.741,252.937 283.075,254.104 279.5,255.5C 279.413,252.261 280.08,249.261 281.5,246.5C 281.343,245.127 281.51,243.793 282,242.5C 284.134,240.197 285.634,237.531 286.5,234.5C 287.325,233.614 288.325,233.281 289.5,233.5C 292.698,224.763 296.198,216.096 300,207.5C 302.548,202.447 306.048,198.113 310.5,194.5 Z"/></g>
<g><path style="opacity:1" fill="#212427" d="M 328.5,202.5 C 336.404,215.3 344.071,228.3 351.5,241.5C 350.201,243.153 350.534,244.653 352.5,246C 351.833,246.333 351.167,246.667 350.5,247C 354.93,248.498 355.263,250.331 351.5,252.5C 349.717,251.545 347.717,250.878 345.5,250.5C 343.209,252.288 341.043,254.288 339,256.5C 338,254.833 336.667,253.5 335,252.5C 334.042,247.152 332.875,241.819 331.5,236.5C 331.669,234.161 332.336,231.994 333.5,230C 331.383,226.095 329.05,222.261 326.5,218.5C 328.624,219.031 330.124,220.365 331,222.5C 331.667,224.5 332.333,226.5 333,228.5C 333.667,227.167 334.333,227.167 335,228.5C 335.827,227.338 336.66,226.171 337.5,225C 336.09,218.547 333.257,212.38 329,206.5C 328.51,205.207 328.343,203.873 328.5,202.5 Z"/></g>
<g><path style="opacity:0.118" fill="#cfd0cf" d="M 240.5,227.5 C 240.5,228.167 240.5,228.833 240.5,229.5C 238.5,232.167 236.5,234.833 234.5,237.5C 235.498,233.495 237.498,230.161 240.5,227.5 Z"/></g>
<g><path style="opacity:1" fill="#1e232a" d="M 301.5,238.5 C 301.5,245.5 301.5,252.5 301.5,259.5C 300.698,260.952 300.198,262.618 300,264.5C 296.978,262.312 294.478,259.645 292.5,256.5C 290.929,255.691 289.262,255.357 287.5,255.5C 287.5,256.5 287.5,257.5 287.5,258.5C 285.435,259.445 283.601,260.112 282,260.5C 281.293,262.081 280.46,263.581 279.5,265C 279.833,265.333 280.167,265.667 280.5,266C 277.961,267.099 277.295,268.766 278.5,271C 281.294,272.586 284.128,274.086 287,275.5C 287.333,274.833 287.667,274.167 288,273.5C 291.698,275.514 295.365,277.514 299,279.5C 299.822,287.555 299.488,295.555 298,303.5C 297.333,287.5 296.667,287.5 296,303.5C 295.667,299.5 295.333,295.5 295,291.5C 294.187,296.774 293.687,296.774 293.5,291.5C 293.649,289.68 294.316,288.18 295.5,287C 293.442,284.555 290.942,282.722 288,281.5C 287.097,282.701 285.931,283.535 284.5,284C 278.079,284.146 272.412,284.646 267.5,285.5C 264.555,291.104 261.221,296.438 257.5,301.5C 257.565,301.062 257.399,300.728 257,300.5C 256.722,301.416 256.222,302.082 255.5,302.5C 253.571,303.223 252.571,302.223 252.5,299.5C 254.24,296.019 255.407,292.352 256,288.5C 261.606,281.855 267.273,275.189 273,268.5C 273,266.5 273,264.5 273,262.5C 274.079,260.606 275.413,260.273 277,261.5C 277.037,259.026 277.87,257.026 279.5,255.5C 283.075,254.104 286.741,252.937 290.5,252C 291.337,250.989 291.67,249.822 291.5,248.5C 293.582,248.472 295.416,249.139 297,250.5C 297.333,249.5 297.667,248.5 298,247.5C 298.333,249.167 298.667,250.833 299,252.5C 300.468,247.975 300.634,243.475 299.5,239C 300.094,238.536 300.761,238.369 301.5,238.5 Z"/></g>
<g><path style="opacity:0.098" fill="#c6c5c3" d="M 234.5,237.5 C 232.957,242.024 230.623,246.024 227.5,249.5C 229.043,244.976 231.377,240.976 234.5,237.5 Z"/></g>
<g><path style="opacity:1" fill="#a3a5a1" d="M 324.5,227.5 C 324.5,228.167 324.5,228.833 324.5,229.5C 323.833,241.007 323.167,252.674 322.5,264.5C 321.752,266.332 320.752,267.999 319.5,269.5C 321.137,274.063 319.97,274.73 316,271.5C 315.829,280.01 315.329,288.343 314.5,296.5C 314.5,281.833 314.5,267.167 314.5,252.5C 315.329,245.011 315.829,237.344 316,229.5C 317.097,227.947 318.43,226.614 320,225.5C 321.47,226.267 322.97,226.933 324.5,227.5 Z"/></g>
<g><path style="opacity:1" fill="#d5d7d4" d="M 345.5,196.5 C 353.29,207.976 360.29,219.976 366.5,232.5C 367.131,235.786 368.464,238.786 370.5,241.5C 369.369,242.604 368.535,242.271 368,240.5C 367.517,241.448 367.351,242.448 367.5,243.5C 369.665,243.116 371.332,243.783 372.5,245.5C 371.5,246.833 370.5,248.167 369.5,249.5C 370.628,250.262 371.795,250.929 373,251.5C 372.737,250.049 372.904,248.716 373.5,247.5C 374.298,249.078 374.798,250.744 375,252.5C 376.131,251.396 376.965,251.729 377.5,253.5C 375.718,254.148 373.885,255.481 372,257.5C 370.959,260.636 371.793,263.136 374.5,265C 373.833,265.333 373.167,265.667 372.5,266C 373.357,266.689 374.023,267.522 374.5,268.5C 374.154,269.696 373.654,269.696 373,268.5C 372.536,269.094 372.369,269.761 372.5,270.5C 364.347,257.538 356.681,244.205 349.5,230.5C 350.363,231.463 351.03,231.463 351.5,230.5C 350.833,229.5 350.167,228.5 349.5,227.5C 350.247,227.264 351.08,226.93 352,226.5C 353.033,223.783 352.2,221.949 349.5,221C 350.959,217.916 349.959,215.916 346.5,215C 346.957,214.586 347.291,214.086 347.5,213.5C 346.422,211.599 345.422,210.099 344.5,209C 344.667,208.167 344.833,207.333 345,206.5C 346.569,206.847 348.402,207.014 350.5,207C 347.727,204.075 346.06,200.575 345.5,196.5 Z"/></g>
<g><path style="opacity:1" fill="#1b1c20" d="M 351.5,241.5 C 359.167,254.833 366.833,268.167 374.5,281.5C 373.733,282.172 373.066,283.005 372.5,284C 374.791,286.447 376.791,289.78 378.5,294C 377.833,294.667 377.167,295.333 376.5,296C 377.833,297.84 377.666,298.34 376,297.5C 375.667,298.167 375.333,298.833 375,299.5C 371.397,294.547 367.73,289.547 364,284.5C 360.538,284.017 360.038,282.85 362.5,281C 360.557,281.305 358.557,281.305 356.5,281C 357.698,278.21 358.365,275.543 358.5,273C 356.946,270.776 355.946,268.276 355.5,265.5C 354.975,264.808 354.308,264.308 353.5,264C 354.634,262.984 354.301,262.317 352.5,262C 353.647,260.096 353.147,258.596 351,257.5C 349.323,258.608 347.823,258.608 346.5,257.5C 347.953,256.175 347.619,255.342 345.5,255C 347.611,254.155 349.611,253.322 351.5,252.5C 355.263,250.331 354.93,248.498 350.5,247C 351.167,246.667 351.833,246.333 352.5,246C 350.534,244.653 350.201,243.153 351.5,241.5 Z"/></g>
<g><path style="opacity:1" fill="#1b1c20" d="M 326.5,218.5 C 329.05,222.261 331.383,226.095 333.5,230C 332.336,231.994 331.669,234.161 331.5,236.5C 332.875,241.819 334.042,247.152 335,252.5C 336.667,253.5 338,254.833 339,256.5C 341.043,254.288 343.209,252.288 345.5,250.5C 347.717,250.878 349.717,251.545 351.5,252.5C 349.611,253.322 347.611,254.155 345.5,255C 347.619,255.342 347.953,256.175 346.5,257.5C 345.175,258.953 344.342,258.619 344,256.5C 343.833,257.333 343.667,258.167 343.5,259C 344.074,260.607 344.74,262.107 345.5,263.5C 344.532,265.607 344.198,267.941 344.5,270.5C 343.778,270.082 343.278,269.416 343,268.5C 341.185,270.827 341.018,273.327 342.5,276C 341.983,278.077 341.316,280.077 340.5,282C 344.838,282.791 349.172,283.457 353.5,284C 349.129,284.172 344.796,284.672 340.5,285.5C 340.624,286.107 340.957,286.44 341.5,286.5C 341.177,293.022 341.51,299.355 342.5,305.5C 342.196,306.15 341.863,306.817 341.5,307.5C 341.846,308.696 342.346,308.696 343,307.5C 342.689,308.935 342.855,310.268 343.5,311.5C 342.833,312.167 342.167,312.833 341.5,313.5C 342.953,315.644 342.62,317.477 340.5,319C 338.19,319.497 335.857,319.663 333.5,319.5C 332.012,297.693 330.679,276.026 329.5,254.5C 329.5,247.5 329.5,240.5 329.5,233.5C 329.5,231.833 329.5,230.167 329.5,228.5C 328.167,228.5 326.833,228.5 325.5,228.5C 325.832,272.67 325.499,316.67 324.5,360.5C 324.5,338.833 324.5,317.167 324.5,295.5C 324.5,273.5 324.5,251.5 324.5,229.5C 324.5,228.833 324.5,228.167 324.5,227.5C 325.675,227.719 326.675,227.386 327.5,226.5C 323.107,219.793 318.773,213.126 314.5,206.5C 314.672,205.508 314.338,204.842 313.5,204.5C 314.405,202.193 315.738,202.193 317.5,204.5C 319.581,208.07 321.415,211.737 323,215.5C 324.359,216.365 325.526,217.365 326.5,218.5 Z"/></g>
<g><path style="opacity:0.824" fill="#919293" d="M 226.5,251.5 C 226.408,253.848 225.408,255.514 223.5,256.5C 223.75,254.326 224.75,252.659 226.5,251.5 Z"/></g>
<g><path style="opacity:1" fill="#17181c" d="M 374.5,237.5 C 376.411,237.574 377.578,238.574 378,240.5C 379.902,239.614 381.735,239.947 383.5,241.5C 382.167,242.5 382.167,243.5 383.5,244.5C 388.686,246.722 392.519,245.389 395,240.5C 395.383,241.056 395.883,241.389 396.5,241.5C 406.257,256.288 415.257,271.622 423.5,287.5C 421.252,286.104 419.086,284.437 417,282.5C 416.195,284.901 415.362,284.734 414.5,282C 413.552,281.517 412.552,281.351 411.5,281.5C 411.719,280.325 411.386,279.325 410.5,278.5C 408.117,279.462 407.117,278.462 407.5,275.5C 405.857,275.48 404.524,276.147 403.5,277.5C 400.986,275.132 400.986,272.799 403.5,270.5C 402.248,268.999 401.248,267.332 400.5,265.5C 400.031,268.208 399.198,271.208 398,274.5C 397.667,273.5 397.333,272.5 397,271.5C 396.23,272.598 395.397,272.598 394.5,271.5C 392.793,270.127 391.46,268.461 390.5,266.5C 388.63,260.581 385.63,255.248 381.5,250.5C 379.411,245.985 377.077,241.652 374.5,237.5 Z"/></g>
<g><path style="opacity:0.396" fill="#a1a2a2" d="M 223.5,256.5 C 223.275,259.546 221.942,261.879 219.5,263.5C 220.468,260.9 221.801,258.566 223.5,256.5 Z"/></g>
<g><path style="opacity:1" fill="#262a2f" d="M 240.5,229.5 C 245.746,229.278 250.746,230.111 255.5,232C 252.635,234.403 252.801,235.236 256,234.5C 256.494,236.134 256.66,237.801 256.5,239.5C 253.5,244.833 250.5,250.167 247.5,255.5C 246.728,256.694 245.728,257.694 244.5,258.5C 243.153,259.171 241.986,259.171 241,258.5C 240.5,259.5 240,260.5 239.5,261.5C 240.167,261.833 240.833,262.167 241.5,262.5C 239.979,264.291 238.146,265.624 236,266.5C 235.692,265.692 235.192,265.025 234.5,264.5C 234.165,266.003 234.165,267.336 234.5,268.5C 233.522,268.023 232.689,267.357 232,266.5C 231.692,267.308 231.192,267.975 230.5,268.5C 229.548,266.955 229.215,265.288 229.5,263.5C 228.5,263.5 227.5,263.5 226.5,263.5C 226.649,264.552 226.483,265.552 226,266.5C 221.643,269.357 218.143,273.023 215.5,277.5C 216.025,278.192 216.692,278.692 217.5,279C 216.234,279.309 215.067,279.809 214,280.5C 213.205,282.901 212.038,285.068 210.5,287C 209.423,287.47 208.423,287.303 207.5,286.5C 207.833,285.167 208.167,283.833 208.5,282.5C 210.931,280.954 212.264,278.621 212.5,275.5C 213.376,275.631 214.043,275.298 214.5,274.5C 215.578,271.793 216.578,269.126 217.5,266.5C 218.906,266.027 219.573,265.027 219.5,263.5C 221.942,261.879 223.275,259.546 223.5,256.5C 225.408,255.514 226.408,253.848 226.5,251.5C 226.328,250.508 226.662,249.842 227.5,249.5C 230.623,246.024 232.957,242.024 234.5,237.5C 236.5,234.833 238.5,232.167 240.5,229.5 Z"/></g>
<g><path style="opacity:1" fill="#c1c3c1" d="M 366.5,232.5 C 374.001,244.164 381.001,256.164 387.5,268.5C 387.94,271.38 388.94,274.046 390.5,276.5C 390.389,277.117 390.056,277.617 389.5,278C 390.804,278.804 391.471,279.971 391.5,281.5C 390.485,285.131 390.319,288.798 391,292.5C 391.5,293.667 392.333,294.5 393.5,295C 392.216,295.684 391.049,295.517 390,294.5C 389.658,296.619 388.825,296.953 387.5,295.5C 381.76,287.7 376.76,279.366 372.5,270.5C 372.369,269.761 372.536,269.094 373,268.5C 373.654,269.696 374.154,269.696 374.5,268.5C 374.023,267.522 373.357,266.689 372.5,266C 373.167,265.667 373.833,265.333 374.5,265C 371.793,263.136 370.959,260.636 372,257.5C 373.885,255.481 375.718,254.148 377.5,253.5C 376.965,251.729 376.131,251.396 375,252.5C 374.798,250.744 374.298,249.078 373.5,247.5C 372.904,248.716 372.737,250.049 373,251.5C 371.795,250.929 370.628,250.262 369.5,249.5C 370.5,248.167 371.5,246.833 372.5,245.5C 371.332,243.783 369.665,243.116 367.5,243.5C 367.351,242.448 367.517,241.448 368,240.5C 368.535,242.271 369.369,242.604 370.5,241.5C 368.464,238.786 367.131,235.786 366.5,232.5 Z"/></g>
<g><path style="opacity:0.106" fill="#c8c8c8" d="M 219.5,263.5 C 219.573,265.027 218.906,266.027 217.5,266.5C 217.427,264.973 218.094,263.973 219.5,263.5 Z"/></g>
<g><path style="opacity:0.808" fill="#8f908e" d="M 217.5,266.5 C 216.578,269.126 215.578,271.793 214.5,274.5C 214.043,275.298 213.376,275.631 212.5,275.5C 213.41,272.008 215.076,269.008 217.5,266.5 Z"/></g>
<g><path style="opacity:1" fill="#1e242a" d="M 244.5,258.5 C 244.108,260.179 243.608,261.846 243,263.5C 235.474,275.897 227.974,288.23 220.5,300.5C 220.654,297.651 220.32,294.651 219.5,291.5C 218.5,291.5 217.5,291.5 216.5,291.5C 216.66,293.199 216.494,294.866 216,296.5C 215.505,294.527 215.338,292.527 215.5,290.5C 212.09,290.384 210.756,292.05 211.5,295.5C 210.5,295.5 209.5,295.5 208.5,295.5C 209.353,288.949 208.353,288.449 205.5,294C 206.833,295.84 206.666,296.34 205,295.5C 204.578,299.205 203.412,299.872 201.5,297.5C 201.833,296.167 202.167,294.833 202.5,293.5C 203.921,290.991 205.588,288.657 207.5,286.5C 208.423,287.303 209.423,287.47 210.5,287C 212.038,285.068 213.205,282.901 214,280.5C 215.067,279.809 216.234,279.309 217.5,279C 216.692,278.692 216.025,278.192 215.5,277.5C 218.143,273.023 221.643,269.357 226,266.5C 226.483,265.552 226.649,264.552 226.5,263.5C 227.5,263.5 228.5,263.5 229.5,263.5C 229.215,265.288 229.548,266.955 230.5,268.5C 231.192,267.975 231.692,267.308 232,266.5C 232.689,267.357 233.522,268.023 234.5,268.5C 234.165,267.336 234.165,266.003 234.5,264.5C 235.192,265.025 235.692,265.692 236,266.5C 238.146,265.624 239.979,264.291 241.5,262.5C 240.833,262.167 240.167,261.833 239.5,261.5C 240,260.5 240.5,259.5 241,258.5C 241.986,259.171 243.153,259.171 244.5,258.5 Z"/></g>
<g><path style="opacity:0.78" fill="#8e8e8e" d="M 212.5,275.5 C 212.264,278.621 210.931,280.954 208.5,282.5C 209.079,279.669 210.412,277.336 212.5,275.5 Z"/></g>
<g><path style="opacity:1" fill="#f3f5f4" d="M 313.5,225.5 C 314.493,234.318 314.827,243.318 314.5,252.5C 314.5,267.167 314.5,281.833 314.5,296.5C 314.5,309.5 314.5,322.5 314.5,335.5C 314.635,342.862 314.302,350.196 313.5,357.5C 310.399,357.692 307.399,358.358 304.5,359.5C 303.614,358.675 303.281,357.675 303.5,356.5C 304.478,356.189 305.145,355.522 305.5,354.5C 304.178,332.202 304.178,309.869 305.5,287.5C 306.331,293.807 306.831,300.141 307,306.5C 307.333,300.833 307.667,295.167 308,289.5C 309.061,294.104 309.727,298.771 310,303.5C 310.221,298.78 310.721,294.113 311.5,289.5C 311.167,288.5 310.5,287.833 309.5,287.5C 308.699,282.381 308.365,277.381 308.5,272.5C 309.078,266.831 309.745,261.164 310.5,255.5C 311.425,254.359 312.259,254.359 313,255.5C 313.5,245.506 313.666,235.506 313.5,225.5 Z"/></g>
<g><path style="opacity:0.188" fill="#bdbdb9" d="M 208.5,282.5 C 208.167,283.833 207.833,285.167 207.5,286.5C 205.588,288.657 203.921,290.991 202.5,293.5C 202.491,291.692 202.991,290.025 204,288.5C 205.277,286.253 206.777,284.253 208.5,282.5 Z"/></g>
<g><path style="opacity:0.999" fill="#111216" d="M 423.5,287.5 C 430.922,298.92 437.922,310.587 444.5,322.5C 442.188,320.364 439.688,318.364 437,316.5C 436.383,317.449 436.549,318.282 437.5,319C 436.5,319.667 435.5,319.667 434.5,319C 433.816,317.307 432.816,315.807 431.5,314.5C 428.296,313.796 425.129,313.13 422,312.5C 421.333,313.833 420.667,315.167 420,316.5C 419.457,313.393 418.291,310.56 416.5,308C 417.126,307.25 417.626,306.416 418,305.5C 420.323,309.422 420.823,309.088 419.5,304.5C 417.668,303.752 416.001,302.752 414.5,301.5C 413.833,301.833 413.167,302.167 412.5,302.5C 408.963,298.011 406.463,293.011 405,287.5C 401.535,285.023 399.202,281.69 398,277.5C 396.167,276.333 394.667,274.833 393.5,273C 394.056,272.617 394.389,272.117 394.5,271.5C 395.397,272.598 396.23,272.598 397,271.5C 397.333,272.5 397.667,273.5 398,274.5C 399.198,271.208 400.031,268.208 400.5,265.5C 401.248,267.332 402.248,268.999 403.5,270.5C 400.986,272.799 400.986,275.132 403.5,277.5C 404.524,276.147 405.857,275.48 407.5,275.5C 407.117,278.462 408.117,279.462 410.5,278.5C 411.386,279.325 411.719,280.325 411.5,281.5C 412.552,281.351 413.552,281.517 414.5,282C 415.362,284.734 416.195,284.901 417,282.5C 419.086,284.437 421.252,286.104 423.5,287.5 Z"/></g>
<g><path style="opacity:1" fill="#d4d9d7" d="M 254.5,273.5 C 245.756,288.65 237.256,303.983 229,319.5C 222.534,320.225 216.034,320.891 209.5,321.5C 209.5,320.833 209.5,320.167 209.5,319.5C 210.674,318.486 211.34,317.153 211.5,315.5C 214.531,310.813 217.531,306.146 220.5,301.5C 220.281,302.675 220.614,303.675 221.5,304.5C 225.449,301.044 227.782,296.71 228.5,291.5C 229.5,291.5 230.5,291.5 231.5,291.5C 231.46,288.575 232.293,285.909 234,283.5C 236.929,279.653 238.929,280.319 240,285.5C 241.351,283.981 242.851,282.648 244.5,281.5C 244.291,280.914 243.957,280.414 243.5,280C 247.442,280.501 250.108,278.667 251.5,274.5C 252.325,273.614 253.325,273.281 254.5,273.5 Z"/></g>
<g><path style="opacity:1" fill="#76797c" d="M 387.5,268.5 C 387.833,268.5 388.167,268.5 388.5,268.5C 395.247,280.996 402.247,293.329 409.5,305.5C 405.871,302.018 402.704,298.018 400,293.5C 397.837,287.195 394.67,281.529 390.5,276.5C 388.94,274.046 387.94,271.38 387.5,268.5 Z"/></g>
<g><path style="opacity:1" fill="#191c21" d="M 281.5,246.5 C 280.08,249.261 279.413,252.261 279.5,255.5C 277.87,257.026 277.037,259.026 277,261.5C 275.413,260.273 274.079,260.606 273,262.5C 273,264.5 273,266.5 273,268.5C 267.273,275.189 261.606,281.855 256,288.5C 255.407,292.352 254.24,296.019 252.5,299.5C 252.571,302.223 253.571,303.223 255.5,302.5C 255.468,306.634 257.468,309.134 261.5,310C 267.841,310.405 274.174,310.905 280.5,311.5C 283.567,311.393 286.567,310.893 289.5,310C 290.888,307.54 291.554,304.873 291.5,302C 290.873,296.485 290.206,290.985 289.5,285.5C 288.5,285.5 287.5,285.5 286.5,285.5C 286.167,285.5 285.833,285.5 285.5,285.5C 279.5,285.5 273.5,285.5 267.5,285.5C 272.412,284.646 278.079,284.146 284.5,284C 285.931,283.535 287.097,282.701 288,281.5C 290.942,282.722 293.442,284.555 295.5,287C 294.316,288.18 293.649,289.68 293.5,291.5C 293.687,296.774 294.187,296.774 295,291.5C 295.333,295.5 295.667,299.5 296,303.5C 296.667,287.5 297.333,287.5 298,303.5C 299.488,295.555 299.822,287.555 299,279.5C 295.365,277.514 291.698,275.514 288,273.5C 287.667,274.167 287.333,274.833 287,275.5C 284.128,274.086 281.294,272.586 278.5,271C 277.295,268.766 277.961,267.099 280.5,266C 280.167,265.667 279.833,265.333 279.5,265C 280.46,263.581 281.293,262.081 282,260.5C 283.601,260.112 285.435,259.445 287.5,258.5C 287.5,257.5 287.5,256.5 287.5,255.5C 289.262,255.357 290.929,255.691 292.5,256.5C 294.478,259.645 296.978,262.312 300,264.5C 300.198,262.618 300.698,260.952 301.5,259.5C 301.5,278.833 301.5,298.167 301.5,317.5C 300.153,318.171 298.986,318.171 298,317.5C 297.333,320.167 296.667,320.167 296,317.5C 293.544,319.321 290.711,319.988 287.5,319.5C 287.532,321.619 286.532,322.952 284.5,323.5C 284.631,322.761 284.464,322.094 284,321.5C 274,322.833 264,322.833 254,321.5C 253,322.167 252,322.833 251,323.5C 251.333,322.167 251.667,320.833 252,319.5C 250.082,320.542 248.249,321.708 246.5,323C 242.333,324.167 240.833,322.667 242,318.5C 242.75,317.874 243.584,317.374 244.5,317C 241.85,314.322 242.35,312.156 246,310.5C 246.333,310.833 246.667,311.167 247,311.5C 247.333,308.833 247.667,306.167 248,303.5C 250.062,299.605 251.895,295.605 253.5,291.5C 252.923,288.45 254.09,286.45 257,285.5C 265.455,272.574 273.621,259.574 281.5,246.5 Z"/></g>
<g><path style="opacity:1" fill="#aeafb1" d="M 283.5,263.5 C 284.451,264.919 284.784,266.585 284.5,268.5C 283.325,268.719 282.325,268.386 281.5,267.5C 282.63,266.378 283.297,265.044 283.5,263.5 Z"/></g>
<g><path style="opacity:1" fill="#e4e9e9" d="M 267.5,285.5 C 273.5,285.5 279.5,285.5 285.5,285.5C 285.5,290.833 285.5,296.167 285.5,301.5C 282.287,301.19 279.287,301.523 276.5,302.5C 270.824,302.334 265.157,302.501 259.5,303C 258.744,304.38 258.078,304.547 257.5,303.5C 257.5,302.833 257.5,302.167 257.5,301.5C 261.221,296.438 264.555,291.104 267.5,285.5 Z"/></g>
<g><path style="opacity:1" fill="#14151a" d="M 329.5,254.5 C 330.679,276.026 332.012,297.693 333.5,319.5C 335.857,319.663 338.19,319.497 340.5,319C 342.62,317.477 342.953,315.644 341.5,313.5C 342.167,312.833 342.833,312.167 343.5,311.5C 342.855,310.268 342.689,308.935 343,307.5C 342.346,308.696 341.846,308.696 341.5,307.5C 341.863,306.817 342.196,306.15 342.5,305.5C 351.833,305.5 361.167,305.5 370.5,305.5C 370.737,304.209 370.404,303.209 369.5,302.5C 367.261,298.36 364.761,294.36 362,290.5C 361.51,289.207 361.343,287.873 361.5,286.5C 354.833,286.5 348.167,286.5 341.5,286.5C 340.957,286.44 340.624,286.107 340.5,285.5C 344.796,284.672 349.129,284.172 353.5,284C 349.172,283.457 344.838,282.791 340.5,282C 341.316,280.077 341.983,278.077 342.5,276C 341.018,273.327 341.185,270.827 343,268.5C 343.278,269.416 343.778,270.082 344.5,270.5C 345.586,270.38 346.253,269.713 346.5,268.5C 345.954,266.865 345.62,265.199 345.5,263.5C 344.74,262.107 344.074,260.607 343.5,259C 343.667,258.167 343.833,257.333 344,256.5C 344.342,258.619 345.175,258.953 346.5,257.5C 347.823,258.608 349.323,258.608 351,257.5C 353.147,258.596 353.647,260.096 352.5,262C 354.301,262.317 354.634,262.984 353.5,264C 354.308,264.308 354.975,264.808 355.5,265.5C 355.946,268.276 356.946,270.776 358.5,273C 358.365,275.543 357.698,278.21 356.5,281C 358.557,281.305 360.557,281.305 362.5,281C 360.038,282.85 360.538,284.017 364,284.5C 367.73,289.547 371.397,294.547 375,299.5C 375.333,298.833 375.667,298.167 376,297.5C 377.666,298.34 377.833,297.84 376.5,296C 377.167,295.333 377.833,294.667 378.5,294C 376.791,289.78 374.791,286.447 372.5,284C 373.066,283.005 373.733,282.172 374.5,281.5C 382.687,295.207 390.354,309.207 397.5,323.5C 395.456,324.778 393.456,324.612 391.5,323C 393.301,322.683 393.634,322.016 392.5,321C 391,320.833 389.5,320.667 388,320.5C 386.019,320.629 384.353,321.296 383,322.5C 381.798,320.942 380.632,319.275 379.5,317.5C 377.549,317.773 376.049,317.107 375,315.5C 372.631,316.927 372.131,318.761 373.5,321C 371.754,321.471 370.087,322.138 368.5,323C 371.036,323.186 373.369,323.686 375.5,324.5C 365.167,324.5 354.833,324.5 344.5,324.5C 344.5,340.167 344.5,355.833 344.5,371.5C 343.67,360.674 343.17,349.674 343,338.5C 341.989,339.337 340.822,339.67 339.5,339.5C 339.425,335.298 337.592,332.964 334,332.5C 333.504,330.965 333.67,329.465 334.5,328C 332.88,327.721 331.547,326.888 330.5,325.5C 330.35,301.987 330.017,278.321 329.5,254.5 Z"/></g>
<g><path style="opacity:1" fill="#dee6e7" d="M 341.5,286.5 C 348.167,286.5 354.833,286.5 361.5,286.5C 361.343,287.873 361.51,289.207 362,290.5C 364.761,294.36 367.261,298.36 369.5,302.5C 360.827,302.334 352.16,302.5 343.5,303C 342.748,303.671 342.414,304.504 342.5,305.5C 341.51,299.355 341.177,293.022 341.5,286.5 Z"/></g>
<g><path style="opacity:1" fill="#747378" d="M 345.5,263.5 C 345.62,265.199 345.954,266.865 346.5,268.5C 346.253,269.713 345.586,270.38 344.5,270.5C 344.198,267.941 344.532,265.607 345.5,263.5 Z"/></g>
<g><path style="opacity:0.82" fill="#828281" d="M 202.5,293.5 C 202.167,294.833 201.833,296.167 201.5,297.5C 201.158,298.338 200.492,298.672 199.5,298.5C 199.75,296.326 200.75,294.659 202.5,293.5 Z"/></g>
<g><path style="opacity:1" fill="#1a1d21" d="M 220.5,300.5 C 220.5,300.833 220.5,301.167 220.5,301.5C 217.531,306.146 214.531,310.813 211.5,315.5C 211.565,315.062 211.399,314.728 211,314.5C 209.84,316.797 208.84,316.464 208,313.5C 205.546,315.013 203.879,314.346 203,311.5C 201.033,313.901 199.533,316.567 198.5,319.5C 197.549,318.674 196.549,318.508 195.5,319C 196.406,320.699 196.739,322.533 196.5,324.5C 195.5,324.5 194.5,324.5 193.5,324.5C 193.321,326.606 192.321,328.272 190.5,329.5C 189.914,329.291 189.414,328.957 189,328.5C 187.605,331.167 185.605,333.167 183,334.5C 182.692,333.692 182.192,333.025 181.5,332.5C 180.304,332.846 180.304,333.346 181.5,334C 180.473,334.513 179.473,335.013 178.5,335.5C 178.66,333.847 179.326,332.514 180.5,331.5C 181.906,331.027 182.573,330.027 182.5,328.5C 182.5,328.167 182.5,327.833 182.5,327.5C 183.906,327.027 184.573,326.027 184.5,324.5C 185.688,323.316 186.855,323.316 188,324.5C 187.743,321.624 188.743,318.957 191,316.5C 191.535,318.271 192.369,318.604 193.5,317.5C 194.123,314.833 195.123,312.333 196.5,310C 195.748,309.329 195.414,308.496 195.5,307.5C 195.5,306.833 195.5,306.167 195.5,305.5C 198.451,304.191 199.784,301.857 199.5,298.5C 200.492,298.672 201.158,298.338 201.5,297.5C 203.412,299.872 204.578,299.205 205,295.5C 206.666,296.34 206.833,295.84 205.5,294C 208.353,288.449 209.353,288.949 208.5,295.5C 209.5,295.5 210.5,295.5 211.5,295.5C 210.756,292.05 212.09,290.384 215.5,290.5C 215.338,292.527 215.505,294.527 216,296.5C 216.494,294.866 216.66,293.199 216.5,291.5C 217.5,291.5 218.5,291.5 219.5,291.5C 220.32,294.651 220.654,297.651 220.5,300.5 Z"/></g>
<g><path style="opacity:1" fill="#98a0a3" d="M 285.5,285.5 C 285.833,285.5 286.167,285.5 286.5,285.5C 286.5,291.167 286.5,296.833 286.5,302.5C 283.167,302.5 279.833,302.5 276.5,302.5C 279.287,301.523 282.287,301.19 285.5,301.5C 285.5,296.167 285.5,290.833 285.5,285.5 Z"/></g>
<g><path style="opacity:0.741" fill="#787676" d="M 199.5,298.5 C 199.784,301.857 198.451,304.191 195.5,305.5C 196.079,302.669 197.412,300.336 199.5,298.5 Z"/></g>
<g><path style="opacity:1" fill="#53595f" d="M 369.5,302.5 C 370.404,303.209 370.737,304.209 370.5,305.5C 361.167,305.5 351.833,305.5 342.5,305.5C 342.414,304.504 342.748,303.671 343.5,303C 352.16,302.5 360.827,302.334 369.5,302.5 Z"/></g>
<g><path style="opacity:1" fill="#090a0e" d="M 286.5,285.5 C 287.5,285.5 288.5,285.5 289.5,285.5C 290.206,290.985 290.873,296.485 291.5,302C 291.554,304.873 290.888,307.54 289.5,310C 286.567,310.893 283.567,311.393 280.5,311.5C 274.174,310.905 267.841,310.405 261.5,310C 257.468,309.134 255.468,306.634 255.5,302.5C 256.222,302.082 256.722,301.416 257,300.5C 257.399,300.728 257.565,301.062 257.5,301.5C 257.5,302.167 257.5,302.833 257.5,303.5C 256.957,303.56 256.624,303.893 256.5,304.5C 266.478,305.499 276.478,305.832 286.5,305.5C 286.5,304.5 286.5,303.5 286.5,302.5C 286.5,296.833 286.5,291.167 286.5,285.5 Z"/></g>
<g><path style="opacity:1" fill="#34373a" d="M 276.5,302.5 C 279.833,302.5 283.167,302.5 286.5,302.5C 286.5,303.5 286.5,304.5 286.5,305.5C 276.478,305.832 266.478,305.499 256.5,304.5C 256.624,303.893 256.957,303.56 257.5,303.5C 258.078,304.547 258.744,304.38 259.5,303C 265.157,302.501 270.824,302.334 276.5,302.5 Z"/></g>
<g><path style="opacity:0.118" fill="#b3b3b2" d="M 195.5,305.5 C 195.5,306.167 195.5,306.833 195.5,307.5C 194.833,307.833 194.167,308.167 193.5,308.5C 193.427,306.973 194.094,305.973 195.5,305.5 Z"/></g>
<g><path style="opacity:1" fill="#a2a6a7" d="M 390.5,276.5 C 394.67,281.529 397.837,287.195 400,293.5C 402.704,298.018 405.871,302.018 409.5,305.5C 409.389,306.117 409.056,306.617 408.5,307C 410.81,310.78 412.643,314.613 414,318.5C 409.197,320.016 404.363,321.016 399.5,321.5C 399.5,322.167 399.5,322.833 399.5,323.5C 399.167,323.5 398.833,323.5 398.5,323.5C 398.662,321.473 398.495,319.473 398,317.5C 394.382,310.103 390.882,302.77 387.5,295.5C 388.825,296.953 389.658,296.619 390,294.5C 391.049,295.517 392.216,295.684 393.5,295C 392.333,294.5 391.5,293.667 391,292.5C 390.319,288.798 390.485,285.131 391.5,281.5C 391.471,279.971 390.804,278.804 389.5,278C 390.056,277.617 390.389,277.117 390.5,276.5 Z"/></g>
<g><path style="opacity:1" fill="#7a7d81" d="M 409.5,305.5 C 412.819,310.797 416.153,316.131 419.5,321.5C 413.142,321.568 406.475,321.568 399.5,321.5C 404.363,321.016 409.197,320.016 414,318.5C 412.643,314.613 410.81,310.78 408.5,307C 409.056,306.617 409.389,306.117 409.5,305.5 Z"/></g>
<g><path style="opacity:0.995" fill="#363735" d="M 195.5,307.5 C 195.414,308.496 195.748,309.329 196.5,310C 195.123,312.333 194.123,314.833 193.5,317.5C 192.369,318.604 191.535,318.271 191,316.5C 188.743,318.957 187.743,321.624 188,324.5C 186.855,323.316 185.688,323.316 184.5,324.5C 186.997,318.835 189.997,313.502 193.5,308.5C 194.167,308.167 194.833,307.833 195.5,307.5 Z"/></g>
<g><path style="opacity:1" fill="#0c0d11" d="M 390.5,266.5 C 391.46,268.461 392.793,270.127 394.5,271.5C 394.389,272.117 394.056,272.617 393.5,273C 394.667,274.833 396.167,276.333 398,277.5C 399.202,281.69 401.535,285.023 405,287.5C 406.463,293.011 408.963,298.011 412.5,302.5C 413.167,302.167 413.833,301.833 414.5,301.5C 416.001,302.752 417.668,303.752 419.5,304.5C 420.823,309.088 420.323,309.422 418,305.5C 417.626,306.416 417.126,307.25 416.5,308C 418.291,310.56 419.457,313.393 420,316.5C 420.667,315.167 421.333,313.833 422,312.5C 425.129,313.13 428.296,313.796 431.5,314.5C 432.816,315.807 433.816,317.307 434.5,319C 435.5,319.667 436.5,319.667 437.5,319C 436.549,318.282 436.383,317.449 437,316.5C 439.688,318.364 442.188,320.364 444.5,322.5C 445.794,323.29 446.961,324.29 448,325.5C 450.758,330.075 453.258,334.742 455.5,339.5C 455.5,340.5 455.5,341.5 455.5,342.5C 431.5,342.5 407.5,342.5 383.5,342.5C 380.825,336.829 378.159,331.162 375.5,325.5C 375.5,325.167 375.5,324.833 375.5,324.5C 373.369,323.686 371.036,323.186 368.5,323C 370.087,322.138 371.754,321.471 373.5,321C 372.131,318.761 372.631,316.927 375,315.5C 376.049,317.107 377.549,317.773 379.5,317.5C 380.632,319.275 381.798,320.942 383,322.5C 384.353,321.296 386.019,320.629 388,320.5C 389.5,320.667 391,320.833 392.5,321C 393.634,322.016 393.301,322.683 391.5,323C 393.456,324.612 395.456,324.778 397.5,323.5C 397.833,323.5 398.167,323.5 398.5,323.5C 398.833,323.5 399.167,323.5 399.5,323.5C 406.532,323.83 413.532,323.497 420.5,322.5C 420.376,321.893 420.043,321.56 419.5,321.5C 416.153,316.131 412.819,310.797 409.5,305.5C 402.247,293.329 395.247,280.996 388.5,268.5C 388.833,267.5 389.5,266.833 390.5,266.5 Z"/></g>
<g><path style="opacity:1" fill="#34363b" d="M 399.5,321.5 C 406.475,321.568 413.142,321.568 419.5,321.5C 420.043,321.56 420.376,321.893 420.5,322.5C 413.532,323.497 406.532,323.83 399.5,323.5C 399.5,322.833 399.5,322.167 399.5,321.5 Z"/></g>
<g><path style="opacity:0.063" fill="#bcbebc" d="M 184.5,324.5 C 184.573,326.027 183.906,327.027 182.5,327.5C 182.427,325.973 183.094,324.973 184.5,324.5 Z"/></g>
<g><path style="opacity:1" fill="#131417" d="M 211.5,315.5 C 211.34,317.153 210.674,318.486 209.5,319.5C 205.57,321.605 205.737,324.272 210,327.5C 210.333,326.833 210.667,326.167 211,325.5C 215.333,328.167 219.667,328.167 224,325.5C 224.308,326.308 224.808,326.975 225.5,327.5C 227.833,326.833 230.167,326.167 232.5,325.5C 234.078,321.597 236.412,318.263 239.5,315.5C 238.539,318.426 237.873,321.426 237.5,324.5C 235.095,325.687 232.761,327.187 230.5,329C 222.503,329.168 214.503,329.001 206.5,328.5C 206.466,331.199 207.133,333.699 208.5,336C 212.177,336.453 215.844,336.286 219.5,335.5C 222.521,336.276 225.521,337.109 228.5,338C 225.233,338.453 222.066,339.287 219,340.5C 216.155,338.394 213.322,338.227 210.5,340C 215.972,340.867 221.306,341.7 226.5,342.5C 209.5,342.5 192.5,342.5 175.5,342.5C 175.833,341.167 176.167,339.833 176.5,338.5C 177.906,338.027 178.573,337.027 178.5,335.5C 179.473,335.013 180.473,334.513 181.5,334C 180.304,333.346 180.304,332.846 181.5,332.5C 182.192,333.025 182.692,333.692 183,334.5C 185.605,333.167 187.605,331.167 189,328.5C 189.414,328.957 189.914,329.291 190.5,329.5C 192.321,328.272 193.321,326.606 193.5,324.5C 194.5,324.5 195.5,324.5 196.5,324.5C 196.739,322.533 196.406,320.699 195.5,319C 196.549,318.508 197.549,318.674 198.5,319.5C 199.533,316.567 201.033,313.901 203,311.5C 203.879,314.346 205.546,315.013 208,313.5C 208.84,316.464 209.84,316.797 211,314.5C 211.399,314.728 211.565,315.062 211.5,315.5 Z"/></g>
<g><path style="opacity:1" fill="#131519" d="M 253.5,291.5 C 251.895,295.605 250.062,299.605 248,303.5C 247.667,306.167 247.333,308.833 247,311.5C 246.667,311.167 246.333,310.833 246,310.5C 242.35,312.156 241.85,314.322 244.5,317C 243.584,317.374 242.75,317.874 242,318.5C 240.833,322.667 242.333,324.167 246.5,323C 248.249,321.708 250.082,320.542 252,319.5C 251.667,320.833 251.333,322.167 251,323.5C 252,322.833 253,322.167 254,321.5C 264,322.833 274,322.833 284,321.5C 284.464,322.094 284.631,322.761 284.5,323.5C 273.129,323.232 261.795,323.566 250.5,324.5C 247.806,330.397 244.806,336.23 241.5,342C 236.511,342.499 231.511,342.666 226.5,342.5C 221.306,341.7 215.972,340.867 210.5,340C 213.322,338.227 216.155,338.394 219,340.5C 222.066,339.287 225.233,338.453 228.5,338C 225.521,337.109 222.521,336.276 219.5,335.5C 215.844,336.286 212.177,336.453 208.5,336C 207.133,333.699 206.466,331.199 206.5,328.5C 214.503,329.001 222.503,329.168 230.5,329C 232.761,327.187 235.095,325.687 237.5,324.5C 237.873,321.426 238.539,318.426 239.5,315.5C 242.115,311.932 243.948,307.932 245,303.5C 247.567,299.263 250.4,295.263 253.5,291.5 Z"/></g>
<g><path style="opacity:0.082" fill="#9e9e9e" d="M 182.5,328.5 C 182.573,330.027 181.906,331.027 180.5,331.5C 180.427,329.973 181.094,328.973 182.5,328.5 Z"/></g>
<g><path style="opacity:0.974" fill="#141618" d="M 281.5,328.5 C 277.555,327.175 273.222,326.508 268.5,326.5C 264.167,326.667 259.833,326.833 255.5,327C 252.112,333.098 248.445,339.098 244.5,345C 223.183,346.612 201.849,346.779 180.5,345.5C 177.659,345.847 175.659,345.513 174.5,344.5C 197.15,343.731 219.817,343.231 242.5,343C 245.435,337.073 248.768,331.406 252.5,326C 262.494,325.5 272.494,325.334 282.5,325.5C 282.737,326.791 282.404,327.791 281.5,328.5 Z"/></g>
<g><path style="opacity:0.145" fill="#9ea19d" d="M 178.5,335.5 C 178.573,337.027 177.906,338.027 176.5,338.5C 176.427,336.973 177.094,335.973 178.5,335.5 Z"/></g>
<g><path style="opacity:1" fill="#131518" d="M 301.5,317.5 C 301.458,332.376 301.458,347.042 301.5,361.5C 300.25,361.423 299.417,360.756 299,359.5C 298.333,360.833 297.667,360.833 297,359.5C 296.667,360.167 296.333,360.833 296,361.5C 295.612,360.572 294.945,359.905 294,359.5C 291.319,362.142 288.486,363.809 285.5,364.5C 284.808,365.025 284.308,365.692 284,366.5C 283.501,370.486 283.334,374.486 283.5,378.5C 300.496,378.006 317.496,377.673 334.5,377.5C 337.5,377.5 340.5,377.5 343.5,377.5C 336.345,378.329 329.011,378.829 321.5,379C 329.493,379.5 337.493,379.666 345.5,379.5C 345.5,361.5 345.5,343.5 345.5,325.5C 355.5,325.5 365.5,325.5 375.5,325.5C 374.048,326.302 372.382,326.802 370.5,327C 371.056,327.383 371.389,327.883 371.5,328.5C 363.479,328.558 355.479,328.224 347.5,327.5C 347.5,332.167 347.5,336.833 347.5,341.5C 346.487,354.336 346.487,367.336 347.5,380.5C 325.149,380.245 302.816,380.578 280.5,381.5C 280.328,380.508 280.662,379.842 281.5,379.5C 282.435,369.336 283.101,359.003 283.5,348.5C 284.493,340.35 284.826,332.017 284.5,323.5C 286.532,322.952 287.532,321.619 287.5,319.5C 290.711,319.988 293.544,319.321 296,317.5C 296.667,320.167 297.333,320.167 298,317.5C 298.986,318.171 300.153,318.171 301.5,317.5 Z"/></g>
<g><path style="opacity:1" fill="#0f1015" d="M 330.5,325.5 C 331.547,326.888 332.88,327.721 334.5,328C 333.67,329.465 333.504,330.965 334,332.5C 337.592,332.964 339.425,335.298 339.5,339.5C 340.822,339.67 341.989,339.337 343,338.5C 343.17,349.674 343.67,360.674 344.5,371.5C 344.795,373.735 344.461,375.735 343.5,377.5C 340.5,377.5 337.5,377.5 334.5,377.5C 334.082,376.778 333.416,376.278 332.5,376C 334.178,373.142 335.178,369.976 335.5,366.5C 334.418,363.539 334.418,360.539 335.5,357.5C 334.523,355.157 333.19,352.99 331.5,351C 334.066,349.374 333.899,347.874 331,346.5C 330.53,341.164 330.03,335.83 329.5,330.5C 329.507,328.631 329.84,326.964 330.5,325.5 Z"/></g>
<g><path style="opacity:0.125" fill="#b6b6b4" d="M 176.5,338.5 C 176.167,339.833 175.833,341.167 175.5,342.5C 175.167,342.5 174.833,342.5 174.5,342.5C 174.229,340.62 174.896,339.287 176.5,338.5 Z"/></g>
<g><path style="opacity:0.972" fill="#3c3d40" d="M 284.5,323.5 C 284.826,332.017 284.493,340.35 283.5,348.5C 283.833,342.401 283.5,337.068 282.5,332.5C 281.566,331.432 281.232,330.099 281.5,328.5C 282.404,327.791 282.737,326.791 282.5,325.5C 272.494,325.334 262.494,325.5 252.5,326C 248.768,331.406 245.435,337.073 242.5,343C 219.817,343.231 197.15,343.731 174.5,344.5C 174.5,343.833 174.5,343.167 174.5,342.5C 174.833,342.5 175.167,342.5 175.5,342.5C 192.5,342.5 209.5,342.5 226.5,342.5C 231.511,342.666 236.511,342.499 241.5,342C 244.806,336.23 247.806,330.397 250.5,324.5C 261.795,323.566 273.129,323.232 284.5,323.5 Z"/></g>
<g><path style="opacity:0.992" fill="#212226" d="M 375.5,325.5 C 378.159,331.162 380.825,336.829 383.5,342.5C 407.5,342.5 431.5,342.5 455.5,342.5C 455.5,341.5 455.5,340.5 455.5,339.5C 457.054,340.914 458.388,342.581 459.5,344.5C 459,345.881 458,346.547 456.5,346.5C 432.2,346.507 407.866,346.34 383.5,346C 381.667,344.833 380.167,343.333 379,341.5C 376.636,336.998 374.136,332.665 371.5,328.5C 371.389,327.883 371.056,327.383 370.5,327C 372.382,326.802 374.048,326.302 375.5,325.5 Z"/></g>
<g><path style="opacity:0.012" fill="#a7a8a7" d="M 174.5,342.5 C 174.5,343.167 174.5,343.833 174.5,344.5C 175.659,345.513 177.659,345.847 180.5,345.5C 178.052,346.473 175.385,346.806 172.5,346.5C 172.229,344.62 172.896,343.287 174.5,342.5 Z"/></g>
<g><path style="opacity:1" fill="#0d0d12" d="M 329.5,233.5 C 329.5,240.5 329.5,247.5 329.5,254.5C 330.017,278.321 330.35,301.987 330.5,325.5C 329.84,326.964 329.507,328.631 329.5,330.5C 330.03,335.83 330.53,341.164 331,346.5C 333.899,347.874 334.066,349.374 331.5,351C 333.19,352.99 334.523,355.157 335.5,357.5C 334.418,360.539 334.418,363.539 335.5,366.5C 335.178,369.976 334.178,373.142 332.5,376C 333.416,376.278 334.082,376.778 334.5,377.5C 317.496,377.673 300.496,378.006 283.5,378.5C 283.334,374.486 283.501,370.486 284,366.5C 284.308,365.692 284.808,365.025 285.5,364.5C 288.486,363.809 291.319,362.142 294,359.5C 294.945,359.905 295.612,360.572 296,361.5C 296.333,360.833 296.667,360.167 297,359.5C 297.667,360.833 298.333,360.833 299,359.5C 299.417,360.756 300.25,361.423 301.5,361.5C 303.407,363.021 304.407,364.688 304.5,366.5C 305.833,365.167 307.167,365.167 308.5,366.5C 309.192,365.975 309.692,365.308 310,364.5C 315.847,365.342 321.68,364.842 327.5,363C 327.167,362.667 326.833,362.333 326.5,362C 328.797,360.869 330.131,359.036 330.5,356.5C 329.465,349.522 328.132,342.355 326.5,335C 326.865,324.124 327.531,313.124 328.5,302C 327.668,279.002 328.002,256.169 329.5,233.5 Z"/></g>
<g><path style="opacity:1" fill="#41434a" d="M 375.5,324.5 C 375.5,324.833 375.5,325.167 375.5,325.5C 365.5,325.5 355.5,325.5 345.5,325.5C 345.5,343.5 345.5,361.5 345.5,379.5C 337.493,379.666 329.493,379.5 321.5,379C 329.011,378.829 336.345,378.329 343.5,377.5C 344.461,375.735 344.795,373.735 344.5,371.5C 344.5,355.833 344.5,340.167 344.5,324.5C 354.833,324.5 365.167,324.5 375.5,324.5 Z"/></g>
<g><path style="opacity:1" fill="#030507" d="M 301.5,227.5 C 301.5,228.167 301.833,228.5 302.5,228.5C 302.5,272.5 302.5,316.5 302.5,360.5C 309.833,360.5 317.167,360.5 324.5,360.5C 325.499,316.67 325.832,272.67 325.5,228.5C 326.833,228.5 328.167,228.5 329.5,228.5C 329.5,230.167 329.5,231.833 329.5,233.5C 328.002,256.169 327.668,279.002 328.5,302C 327.531,313.124 326.865,324.124 326.5,335C 328.132,342.355 329.465,349.522 330.5,356.5C 330.131,359.036 328.797,360.869 326.5,362C 326.833,362.333 327.167,362.667 327.5,363C 321.68,364.842 315.847,365.342 310,364.5C 309.692,365.308 309.192,365.975 308.5,366.5C 307.167,365.167 305.833,365.167 304.5,366.5C 304.407,364.688 303.407,363.021 301.5,361.5C 301.458,347.042 301.458,332.376 301.5,317.5C 301.5,298.167 301.5,278.833 301.5,259.5C 301.5,252.5 301.5,245.5 301.5,238.5C 300.987,235.551 300.987,232.718 301.5,230C 299.637,228.582 299.137,226.749 300,224.5C 300.232,225.737 300.732,226.737 301.5,227.5 Z"/></g>
<g><path style="opacity:1" fill="#5d6266" d="M 302.5,228.5 C 303.499,270.997 303.832,313.663 303.5,356.5C 303.281,357.675 303.614,358.675 304.5,359.5C 307.399,358.358 310.399,357.692 313.5,357.5C 316.833,357.5 320.167,357.5 323.5,357.5C 323.5,347.167 323.5,336.833 323.5,326.5C 323.172,315.986 323.506,305.653 324.5,295.5C 324.5,317.167 324.5,338.833 324.5,360.5C 317.167,360.5 309.833,360.5 302.5,360.5C 302.5,316.5 302.5,272.5 302.5,228.5 Z"/></g>
<g><path style="opacity:1" fill="#767c7e" d="M 323.5,326.5 C 323.5,336.833 323.5,347.167 323.5,357.5C 320.167,357.5 316.833,357.5 313.5,357.5C 314.302,350.196 314.635,342.862 314.5,335.5C 315.326,330.684 315.826,325.684 316,320.5C 316.226,323.095 316.726,325.595 317.5,328C 318.449,328.617 319.282,328.451 320,327.5C 320.112,319.874 321.279,319.541 323.5,326.5 Z"/></g>
<g><path style="opacity:1" fill="#8a8d8c" d="M 324.5,229.5 C 324.5,251.5 324.5,273.5 324.5,295.5C 323.506,305.653 323.172,315.986 323.5,326.5C 321.279,319.541 320.112,319.874 320,327.5C 319.282,328.451 318.449,328.617 317.5,328C 316.726,325.595 316.226,323.095 316,320.5C 315.826,325.684 315.326,330.684 314.5,335.5C 314.5,322.5 314.5,309.5 314.5,296.5C 315.329,288.343 315.829,280.01 316,271.5C 319.97,274.73 321.137,274.063 319.5,269.5C 320.752,267.999 321.752,266.332 322.5,264.5C 323.167,252.674 323.833,241.007 324.5,229.5 Z"/></g>
<g><path style="opacity:0.043" fill="#b9bbbd" d="M 283.5,348.5 C 283.101,359.003 282.435,369.336 281.5,379.5C 281.861,363.834 282.194,348.167 282.5,332.5C 283.5,337.068 283.833,342.401 283.5,348.5 Z"/></g>
<g><path style="opacity:0.35" fill="#2d2f32" d="M 347.5,341.5 C 348.055,354.827 348.389,368.16 348.5,381.5C 325.862,381.931 303.195,381.931 280.5,381.5C 302.816,380.578 325.149,380.245 347.5,380.5C 346.487,367.336 346.487,354.336 347.5,341.5 Z"/></g>
</svg>
